<svg width="780" height="156" viewBox="0 0 780 156" fill="none" xmlns="http://www.w3.org/2000/svg">
<rect width="780" height="156" fill="#6F2DBD"/>
<path d="M67.072 120H54.528V86.848H24.448V120H11.776V42.688L22.912 31.552H67.072V120ZM62.464 42.688H24.448V85.312L34.048 75.712H54.528V50.624L62.464 42.688ZM136.582 86.848H105.094V120H92.422V53.568L103.558 42.688H90.886V31.552H136.582V42.688H105.094V85.312L114.438 75.712H136.582V86.848ZM192.849 42.688H173.009V120H160.337V42.688H140.625V31.552H192.849V42.688ZM249.707 120H205.547V53.568L216.683 42.688H204.011V31.552H249.707V42.688H218.219V74.176L227.563 64.704H249.707V75.712H218.219V108.864H249.707V120ZM323.968 120H311.296L311.552 111.04L286.208 85.568L294.784 75.712H311.296V42.688H281.344V120H268.672V53.568L279.808 42.688H267.136V31.552H312.832L323.968 42.688V74.176L312.832 85.312H302.464V86.976L323.968 108.224V120ZM397.25 142.144H332.354V131.136H397.25V142.144ZM462.807 120H409.047V31.552H421.719V108.864H450.135V97.856L462.807 85.312V120ZM521.153 120H476.865V108.864H497.473V44.864H495.937L481.729 59.072L473.793 51.136L493.377 31.552H510.145V108.864H521.153V120ZM586.582 86.848H555.094V120H542.422V53.568L553.558 42.688H540.886V31.552H586.582V42.688H555.094V85.312L564.438 75.712H586.582V86.848ZM647.457 120H603.297V53.568L614.433 42.688H601.761V31.552H647.457V42.688H615.969V74.176L625.313 64.704H647.457V75.712H615.969V108.864H647.457V120ZM708.278 120H663.99V108.864H684.598V44.864H683.062L668.854 59.072L660.918 51.136L680.502 31.552H697.27V108.864H708.278V120ZM770.635 108.864L759.499 120H737.355L726.347 108.864V97.856H739.019V108.864H757.963V75.712H726.347V31.552H770.635V42.688H737.355V64.704H759.499L770.635 75.712V108.864Z" fill="#B9FAF8"/>
<line x1="5.23223" y1="88.2322" x2="66.2322" y2="27.2322" stroke="#6F2DBD" stroke-width="5"/>
<line x1="5.23223" y1="114.232" x2="101.232" y2="18.2322" stroke="#6F2DBD" stroke-width="5"/>
<line x1="3.23223" y1="66.2322" x2="64.2322" y2="5.23223" stroke="#6F2DBD" stroke-width="5"/>
<line x1="33.2322" y1="139.232" x2="159.232" y2="13.2322" stroke="#6F2DBD" stroke-width="5"/>
<line x1="58.2322" y1="139.232" x2="184.232" y2="13.2322" stroke="#6F2DBD" stroke-width="5"/>
<line x1="85.2322" y1="139.232" x2="211.232" y2="13.2322" stroke="#6F2DBD" stroke-width="5"/>
<line x1="113.232" y1="139.232" x2="239.232" y2="13.2322" stroke="#6F2DBD" stroke-width="5"/>
<line x1="135.232" y1="139.232" x2="261.232" y2="13.2322" stroke="#6F2DBD" stroke-width="5"/>
<line x1="159.232" y1="139.232" x2="285.232" y2="13.2322" stroke="#6F2DBD" stroke-width="5"/>
<line x1="187.232" y1="139.232" x2="313.232" y2="13.2322" stroke="#6F2DBD" stroke-width="5"/>
<line x1="211.232" y1="139.232" x2="337.232" y2="13.2322" stroke="#6F2DBD" stroke-width="5"/>
<line x1="9.23223" y1="135.232" x2="135.232" y2="9.23223" stroke="#6F2DBD" stroke-width="5"/>
<line x1="258.232" y1="143.232" x2="384.232" y2="17.2322" stroke="#6F2DBD" stroke-width="5"/>
<line x1="283.232" y1="143.232" x2="409.232" y2="17.2322" stroke="#6F2DBD" stroke-width="5"/>
<line x1="310.232" y1="143.232" x2="436.232" y2="17.2322" stroke="#6F2DBD" stroke-width="5"/>
<line x1="338.232" y1="143.232" x2="464.232" y2="17.2322" stroke="#6F2DBD" stroke-width="5"/>
<line x1="360.232" y1="143.232" x2="486.232" y2="17.2322" stroke="#6F2DBD" stroke-width="5"/>
<line x1="384.232" y1="143.232" x2="510.232" y2="17.2322" stroke="#6F2DBD" stroke-width="5"/>
<line x1="412.232" y1="143.232" x2="538.232" y2="17.2322" stroke="#6F2DBD" stroke-width="5"/>
<line x1="436.232" y1="143.232" x2="562.232" y2="17.2322" stroke="#6F2DBD" stroke-width="5"/>
<line x1="234.232" y1="139.232" x2="360.232" y2="13.2322" stroke="#6F2DBD" stroke-width="5"/>
<line x1="481.232" y1="147.232" x2="607.232" y2="21.2322" stroke="#6F2DBD" stroke-width="5"/>
<line x1="506.232" y1="147.232" x2="632.232" y2="21.2322" stroke="#6F2DBD" stroke-width="5"/>
<line x1="533.232" y1="147.232" x2="659.232" y2="21.2322" stroke="#6F2DBD" stroke-width="5"/>
<line x1="561.232" y1="147.232" x2="687.232" y2="21.2322" stroke="#6F2DBD" stroke-width="5"/>
<line x1="583.232" y1="147.232" x2="709.232" y2="21.2322" stroke="#6F2DBD" stroke-width="5"/>
<line x1="607.232" y1="147.232" x2="733.232" y2="21.2322" stroke="#6F2DBD" stroke-width="5"/>
<line x1="635.232" y1="147.232" x2="761.232" y2="21.2322" stroke="#6F2DBD" stroke-width="5"/>
<line x1="659.232" y1="147.232" x2="776.232" y2="30.2322" stroke="#6F2DBD" stroke-width="5"/>
<line x1="675.259" y1="154.206" x2="776.259" y2="56.2058" stroke="#6F2DBD" stroke-width="5"/>
<line x1="709.232" y1="145.232" x2="777.232" y2="77.2322" stroke="#6F2DBD" stroke-width="5"/>
<line x1="457.232" y1="143.232" x2="583.232" y2="17.2322" stroke="#6F2DBD" stroke-width="5"/>
<line x1="33.2322" y1="139.232" x2="159.232" y2="13.2322" stroke="#6F2DBD" stroke-width="5"/>
<line x1="58.2322" y1="139.232" x2="184.232" y2="13.2322" stroke="#6F2DBD" stroke-width="5"/>
<line x1="85.2322" y1="139.232" x2="211.232" y2="13.2322" stroke="#6F2DBD" stroke-width="5"/>
<line x1="113.232" y1="139.232" x2="239.232" y2="13.2322" stroke="#6F2DBD" stroke-width="5"/>
<line x1="135.232" y1="139.232" x2="261.232" y2="13.2322" stroke="#6F2DBD" stroke-width="5"/>
<line x1="159.232" y1="139.232" x2="285.232" y2="13.2322" stroke="#6F2DBD" stroke-width="5"/>
<line x1="187.232" y1="139.232" x2="313.232" y2="13.2322" stroke="#6F2DBD" stroke-width="5"/>
<line x1="211.232" y1="139.232" x2="337.232" y2="13.2322" stroke="#6F2DBD" stroke-width="5"/>
<line x1="9.23223" y1="135.232" x2="135.232" y2="9.23223" stroke="#6F2DBD" stroke-width="5"/>
</svg>
